PathFileType	4	(X/Y/Z)	T00_Trial_0-99.trc
DataRate	CameraRate	NumFrames	NumMarkers	Units	OrigDataRate	OrigDataStartFrame	OrigNumFrames
60	60	6	22	m	60	37	99
Frame#	Time	Hip			RHip			RKnee			RAnkle			RBigToe			RSmallToe			RHeel			LHip			LKnee			LAnkle			LBigToe			LSmallToe			LHeel			Neck			Head			Nose			RShoulder			RElbow			RWrist			LShoulder			LElbow			LWrist		
		X1	Y1	Z1	X2	Y2	Z2	X3	Y3	Z3	X4	Y4	Z4	X5	Y5	Z5	X6	Y6	Z6	X7	Y7	Z7	X8	Y8	Z8	X9	Y9	Z9	X10	Y10	Z10	X11	Y11	Z11	X12	Y12	Z12	X13	Y13	Z13	X14	Y14	Z14	X15	Y15	Z15	X16	Y16	Z16	X17	Y17	Z17	X18	Y18	Z18	X19	Y19	Z19	X20	Y20	Z20	X21	Y21	Z21	X22	Y22	Z22
37	0.6166666666666667	-0.11959869891413105	0.9300265784192315	-1.1555140459429583	-0.07053637426433776	0.9347695164448194	-0.7802800800000438	-0.22580768072066829	0.5095540604086847	-1.2314465746016785	-0.6648267960339753	0.3246528256271623	-1.0880280737628016	-0.7603549510972788	0.26066083188162814	-0.9111313172835283	-0.7687756217774234	0.29497950175154614	-1.0017225457128351	-0.6660256473370154	0.28737838856279196	-1.1170086836682758	-0.0344043053010898	0.8552052185741883	-1.1112378590208816	-0.06400982903125371	0.475423785349277	-0.9744986423981313	-0.02724994897478737	0.14620736510404572	-1.1499412122518697	-0.025040424343369543	0.061370983600447244	-0.9816181288551561	0.014826243636798695	0.052205347450641613	-1.022687816709477	-0.011303953572825452	0.1070753249711155	-1.2144960035104548	0.2514817777137093	1.3482016312645109	-1.0799058916026905	0.0716308299674048	1.6941985096723564	-1.1613362201070678	0.023482133754419203	1.5266114702982818	-1.109965500868608	0.05318530473485892	1.4034543491867404	-1.171764457545449	-0.21151965301038403	1.4486488170395693	-1.224744024490049	-0.2700060427923892	1.5932325378426138	-1.0305568465635067	0.33589512516001524	1.1763267203999062	-1.1308404254725193	0.3476840338149375	0.8851597823172586	-1.0880667608468382	0.3417330397458312	0.6248677427883921	-0.9946627825557527
38	0.6333333333333333	-0.12320999407631127	0.9280994288865436	-1.1473440673818258	-0.07053637426433776	0.9347695164448194	-0.7802800800000438	-0.22580768072066829	0.5095540604086847	-1.2314465746016785	-0.6903978187805161	0.3351608896592652	-1.0721506657555884	-0.7815140654354343	0.2854919784786673	-0.9061588747272427	-0.7957901724310544	0.3029034537680109	-0.9775472994894838	-0.6906021513569617	0.2948708211317553	-1.103302725741429	-0.03526746587654852	0.8619945312043371	-1.1054113865125468	-0.0659588681181111	0.4738719771998406	-0.9637412715488951	-0.023701887814713864	0.15453852141982494	-1.1546129229101034	-0.03414198912553408	0.04970953233112139	-0.973635016601266	0.01044172450315319	0.0445035064922682	-1.0244767970634994	-0.010723284041507679	0.11137994899225437	-1.2096675491090925	0.2478009711463065	1.3430598848394764	-1.0738112344756667	0.0716308299674048	1.6941985096723564	-1.1613362201070678	0.023482133754419203	1.5266114702982818	-1.109965500868608	0.0508664446019369	1.4047995316956023	-1.1641820015599063	-0.2068881832967381	1.455376038664951	-1.2143704278343528	-0.26124738195302	1.5996490291052563	-1.021935147259293	0.3400328515244179	1.1758340503452485	-1.1325773107987827	0.35520536336853764	0.8841580147021729	-1.0916721234049374	0.34238062580451395	0.6304861782857628	-0.9988216825729642
39	0.65	-0.12543418743434348	0.9343595706057102	-1.1389380111719	-0.07053637426433776	0.9347695164448194	-0.7802800800000438	-0.22580768072066829	0.5095540604086847	-1.2314465746016785	-0.707135106838847	0.3507240247939752	-1.067391571997669	-0.7908778553879321	0.29492659513426195	-0.8932431220659126	-0.8072298453186482	0.31786939020482624	-0.9679816228613517	-0.7138134243925622	0.31292079832293757	-1.0962812156124868	-0.03372203005335849	0.866243263928667	-1.1112613722623141	-0.06729229191065882	0.4806108770130069	-0.9674873006636309	-0.026217304091192627	0.15145656724150777	-1.151150699975524	-0.03580259077737705	0.04202710414982118	-0.965825756825467	0.009503012542338445	0.051545755595510674	-1.0225392246311802	-0.013217442170806405	0.11028101126858428	-1.2089906898814593	0.25860394984260043	1.3407395513060891	-1.0670704016883914	0.0716308299674048	1.6941985096723564	-1.1613362201070678	0.023482133754419203	1.5266114702982818	-1.109965500868608	0.06549309759583265	1.4022559368351002	-1.1610325713605127	-0.20131269725177664	1.4571923608895154	-1.203199490703055	-0.2443378289954051	1.6141375864466203	-1.0082251125819577	0.3412432108840854	1.171432781291468	-1.1332513050562778	0.34870394190963244	0.8811145349051106	-1.083697625657857	0.3447037068786488	0.6327538665076191	-0.9936019155739287
40	0.6666666666666666	-0.12660234345795254	0.9331710826275877	-1.1361130535869766	-0.07053637426433776	0.9347695164448194	-0.7802800800000438	-0.22580768072066829	0.5095540604086847	-1.2314465746016785	-0.7292267998376375	0.36065353582163984	-1.0572590335430534	-0.8167652916733825	0.29649353147496654	-0.8766912554911608	-0.8375649074163736	0.3134864803404029	-0.9448186823738132	-0.7365790483967372	0.32555818834711375	-1.0865945338231933	-0.04314818177713682	0.8586408658149429	-1.1000673180715796	-0.07071388812592766	0.4665153313880252	-0.9624216175434331	-0.02873272036767139	0.1483746130631906	-1.147688477040945	-0.03453427860724264	0.0433814194027471	-0.9707252363409917	-0.0011218119502866583	0.04650937001502725	-1.0254533629360585	-0.01571160030010513	0.10918207354491419	-1.208313830653826	0.26137033030538864	1.3443175411067108	-1.0692922363018535	0.0716308299674048	1.6941985096723564	-1.1613362201070678	0.023482133754419203	1.5266114702982818	-1.109965500868608	0.06457663604489133	1.401959244190234	-1.1453897576891525	-0.19511085836337308	1.4643353083122146	-1.1910104585520878	-0.23932761721011497	1.6209055319317025	-0.9927329700515447	0.342964496236896	1.1715490897032097	-1.1301940829546269	0.3537896108411292	0.8845379128343179	-1.08461273422099	0.3474485310687486	0.6265414158899147	-0.9928319464016329
41	0.6833333333333333	-0.13329930036653878	0.9362566120676296	-1.1304083474731013	-0.07053637426433776	0.9347695164448194	-0.7802800800000438	-0.22580768072066829	0.5095540604086847	-1.2314465746016785	-0.7387727212838745	0.37866792318723874	-1.0431094877768774	-0.8347796795094662	0.3136358774174175	-0.8743291365812503	-0.8463049820423582	0.3227362655411374	-0.9445380759653976	-0.7466666151295019	0.3430766923088434	-1.077165490240919	-0.04266973709478678	0.8587300604548952	-1.1011579965213063	-0.07138935276331398	0.47478900797029505	-0.9606529970441109	-0.028663487711192457	0.1489932237650339	-1.1474370678598156	-0.024768525334221695	0.04827038483275897	-0.9903900456457123	0.01221360420161653	0.0472235842836363	-1.0404023868276662	-0.018205758429403855	0.10808313582124408	-1.2076369714261928	0.2631113398577614	1.3438491953034444	-1.059330017474744	0.0716308299674048	1.6941985096723564	-1.1613362201070678	0.023482133754419203	1.5266114702982818	-1.109965500868608	0.05718380766147095	1.4029703469479433	-1.133246970655842	-0.19369540438442756	1.4686889511807655	-1.1751052919228704	-0.22358366405431396	1.6228989246260779	-0.9837835415786371	0.3438594623800283	1.168566933402022	-1.1232073307257093	0.3616832853056352	0.8806101475900853	-1.093993017262023	0.35501849472397984	0.6218143286006872	-0.9955594789281247
42	0.7	-0.13519023194815818	0.9310147285803607	-1.1265660674063014	-0.07053637426433776	0.9347695164448194	-0.7802800800000438	-0.22580768072066829	0.5095540604086847	-1.2314465746016785	-0.7562067016344562	0.39711241539044867	-1.021215750948775	-0.8390096603890319	0.34397453651305426	-0.871730887427959	-0.8575010011485438	0.33404908635173347	-0.929915210186611	-0.767905668110384	0.354206564785456	-1.054371081774869	-0.043888427287520744	0.8563534201418066	-1.0914690547243477	-0.07070083874411978	0.47359365287063815	-0.960486131360004	-0.028594255054713528	0.14961183446687723	-1.1471856586786862	-0.03315689689015837	0.04409900079445599	-0.992895518594312	0.015927334908416885	0.05056515488064357	-1.0478721303061138	-0.020699916558702583	0.106984198097574	-1.2069601121985594	0.2583025658799384	1.3290844821678136	-1.0549958148819099	0.0716308299674048	1.6941985096723564	-1.1613362201070678	0.023482133754419203	1.5266114702982818	-1.109965500868608	0.05508210659077912	1.3993562259125851	-1.122589971025673	-0.1918854104287847	1.4713860879109328	-1.1580084838104485	-0.2048600515988546	1.6368893592349836	-0.9632827159738857	0.3432348281571171	1.159677977487866	-1.1166035886315622	0.3614561226667802	0.8798783287612129	-1.0914517199754243	0.362532951116579	0.6294283192539553	-0.9966485515630159
